<?xml version="1.0" standalone="no"?>
<!DOCTYPE svg PUBLIC "-//W3C//DTD SVG 20010904//EN"
 "http://www.w3.org/TR/2001/REC-SVG-20010904/DTD/svg10.dtd">
<svg version="1.0" xmlns="http://www.w3.org/2000/svg"
 width="434.000000pt" height="575.000000pt" viewBox="0 0 434.000000 575.000000"
 preserveAspectRatio="xMidYMid meet">

<g transform="translate(0.000000,575.000000) scale(0.100000,-0.100000)"
fill="#8b6c72" stroke="none">
<path d="M1225 5745 c-5 -1 -30 -9 -55 -16 -152 -46 -272 -180 -301 -336 -22
-119 10 -239 91 -341 44 -56 136 -123 198 -143 20 -7 40 -17 44 -23 4 -6 8
-393 8 -861 1 -879 4 -964 43 -1100 38 -130 141 -302 236 -395 68 -66 227
-180 251 -180 7 0 24 -6 38 -14 75 -38 253 -76 357 -76 137 0 374 56 451 107
13 8 33 13 46 11 20 -3 23 -8 20 -42 -2 -22 -16 -68 -32 -103 -16 -34 -26 -63
-23 -63 3 0 1 -6 -4 -12 -6 -7 -18 -39 -28 -70 -18 -58 -18 -58 5 -92 13 -18
45 -48 72 -66 47 -32 49 -33 63 -14 8 10 15 24 15 29 0 6 18 34 40 63 22 28
38 52 35 52 -3 0 4 9 15 20 12 12 18 25 15 31 -4 5 -3 9 2 7 4 -1 49 39 98 88
118 116 133 128 218 168 102 49 217 70 333 62 l94 -7 18 31 c11 18 27 78 36
141 l17 110 -23 37 c-12 20 -45 60 -73 88 -59 59 -108 114 -151 170 -28 36
-45 64 -114 194 -45 84 -94 209 -106 269 -3 13 -10 33 -15 44 -6 11 -13 29
-14 41 -2 11 -13 68 -24 126 -12 58 -26 143 -32 190 -21 172 -17 162 -79 176
-30 7 -60 13 -66 14 -7 0 -14 -41 -18 -114 -5 -91 -12 -128 -37 -192 -29 -74
-87 -193 -100 -204 -3 -3 -25 -33 -48 -67 -24 -35 -47 -65 -52 -69 -5 -3 -7
-10 -3 -15 3 -5 2 -8 -3 -7 -10 4 -88 -81 -81 -88 5 -5 139 47 210 81 61 30
69 19 62 -82 -3 -48 -16 -146 -29 -218 -13 -71 -29 -161 -35 -200 -16 -92 -47
-144 -141 -235 -87 -85 -209 -156 -319 -185 -99 -26 -350 -18 -440 14 -102 36
-156 64 -237 124 -144 105 -248 293 -273 491 -12 93 -14 1775 -2 1791 4 6 42
28 84 49 155 77 248 222 248 387 0 145 -99 307 -228 373 -83 43 -221 68 -277
51z m178 -191 c62 -33 97 -67 123 -122 23 -49 26 -65 22 -129 -9 -139 -95
-224 -235 -231 -85 -5 -134 9 -189 54 -23 18 -45 30 -49 26 -5 -4 -5 -2 -1 5
4 7 -3 31 -15 54 -18 37 -20 53 -15 123 8 108 9 115 18 110 4 -3 8 -1 8 5 0
15 78 88 114 105 43 22 177 21 219 0z"/>
<path d="M2650 1335 c-25 -8 -64 -19 -87 -25 -47 -12 -58 -30 -18 -30 46 0 62
-30 69 -122 11 -155 2 -751 -11 -774 -7 -12 -26 -24 -43 -27 -16 -4 -30 -11
-30 -17 0 -6 54 -10 151 -10 112 0 150 3 147 12 -3 7 -17 15 -33 20 -15 4 -32
13 -36 20 -5 7 -9 63 -9 124 0 114 3 123 46 147 7 4 60 -61 129 -158 l118
-165 99 0 c75 0 99 3 96 13 -3 6 -13 13 -24 15 -11 2 -38 20 -61 40 -47 44
-253 315 -253 335 0 7 41 54 92 103 51 49 91 92 90 95 0 4 4 6 11 5 18 -1 87
27 87 36 0 4 -49 8 -110 8 -60 0 -113 1 -117 3 -4 1 -9 -5 -11 -14 -2 -11 6
-19 22 -23 45 -11 32 -44 -52 -141 -43 -50 -96 -105 -118 -124 l-39 -35 -5
350 -5 349 -25 2 c-14 1 -45 -5 -70 -12z"/>
<path d="M3375 1326 c-83 -24 -95 -36 -47 -48 52 -14 52 -10 52 -459 0 -230
-3 -424 -6 -433 -3 -9 -24 -21 -45 -26 -76 -21 -40 -30 117 -30 120 0 155 3
152 13 -3 6 -17 13 -31 15 -56 7 -57 16 -57 527 l0 465 -27 -1 c-16 0 -64 -11
-108 -23z"/>
<path d="M20 1276 c0 -8 12 -17 26 -20 14 -4 37 -18 50 -31 l24 -24 0 -393 c0
-434 1 -429 -62 -446 -18 -4 -33 -13 -36 -20 -3 -9 39 -12 168 -12 133 0 171
3 168 13 -3 6 -16 13 -30 15 -14 2 -34 12 -44 24 -17 18 -19 42 -22 209 l-3
189 245 0 246 0 0 -184 c0 -169 -2 -185 -20 -209 -11 -14 -32 -27 -47 -29 -15
-2 -28 -9 -31 -15 -3 -10 35 -13 167 -13 145 0 171 2 171 15 0 9 -9 15 -24 15
-13 0 -34 9 -47 19 l-24 19 -3 389 c-2 254 1 399 8 417 6 18 24 33 50 44 22 9
40 23 40 30 0 9 -41 12 -170 12 -129 0 -170 -3 -170 -12 0 -7 18 -21 40 -30
25 -10 44 -26 50 -43 5 -14 10 -105 10 -201 l0 -174 -245 0 -245 0 0 184 c0
169 2 185 20 209 11 14 34 28 50 32 17 4 30 13 30 21 0 12 -30 14 -170 14
-139 0 -170 -3 -170 -14z"/>
<path d="M1269 984 c-60 -18 -143 -92 -175 -155 -13 -27 -29 -82 -36 -122 -29
-189 80 -355 258 -392 167 -35 326 55 374 213 40 130 16 279 -61 366 -45 51
-131 101 -160 93 -11 -3 -17 -1 -13 4 8 14 -136 9 -187 -7z m182 -47 c137 -92
162 -420 41 -549 -71 -76 -206 -31 -262 89 -66 140 -30 403 63 462 45 29 114
28 158 -2z"/>
<path d="M2034 989 c-49 -14 -125 -69 -161 -117 -48 -64 -67 -137 -61 -246 4
-71 11 -102 31 -141 54 -107 169 -176 293 -177 146 -1 262 80 308 215 24 70
21 202 -5 272 -29 78 -105 158 -175 184 -59 22 -171 27 -230 10z m170 -48 c90
-60 140 -231 112 -389 -17 -94 -33 -128 -82 -172 -34 -29 -42 -32 -89 -28
-121 10 -195 128 -195 312 0 123 22 197 75 253 39 40 45 43 96 43 36 0 63 -6
83 -19z"/>
<path d="M3616 966 c3 -8 16 -17 29 -20 13 -3 33 -19 44 -35 32 -45 261 -588
261 -619 0 -23 -55 -136 -74 -152 -11 -8 -29 -8 -73 1 -50 10 -63 10 -90 -4
-60 -31 -51 -101 14 -113 49 -9 111 1 135 23 41 36 86 121 150 283 151 382
190 486 192 507 0 12 3 20 5 17 2 -2 13 15 24 38 15 30 31 45 59 56 21 8 38
19 38 24 0 4 -55 8 -121 8 -107 0 -120 -2 -109 -15 7 -8 18 -15 26 -15 18 0
44 -40 44 -68 0 -28 -28 -115 -85 -257 -24 -60 -46 -120 -50 -132 -10 -36 -22
-27 -44 30 -11 28 -43 108 -71 177 -91 220 -93 232 -45 250 57 22 23 30 -120
30 -120 0 -143 -2 -139 -14z"/>
</g>
</svg>
