<?xml version="1.0" standalone="no"?>
<!DOCTYPE svg PUBLIC "-//W3C//DTD SVG 20010904//EN"
 "http://www.w3.org/TR/2001/REC-SVG-20010904/DTD/svg10.dtd">
<svg version="1.0" xmlns="http://www.w3.org/2000/svg"
 width="434.000000pt" height="(375.000000pt" viewBox="0 0 400.000000 400.000000"
 preserveAspectRatio="xMidYMid meet">

<g transform="translate(0.000000,582.000000) scale(0.100000,-0.100000)"
fill="#8b6c72" stroke="none">
<path d="M1225 5745 c-5 -1 -30 -9 -55 -16 -152 -46 -272 -180 -301 -336 -22
-119 10 -239 91 -341 44 -56 136 -123 198 -143 20 -7 40 -17 44 -23 4 -6 8
-393 8 -861 1 -879 4 -964 43 -1100 38 -130 141 -302 236 -395 68 -66 227
-180 251 -180 7 0 24 -6 38 -14 75 -38 253 -76 357 -76 137 0 374 56 451 107
13 8 33 13 46 11 20 -3 23 -8 20 -42 -2 -22 -16 -68 -32 -103 -16 -34 -26 -63
-23 -63 3 0 1 -6 -4 -12 -6 -7 -18 -39 -28 -70 -18 -58 -18 -58 5 -92 13 -18
45 -48 72 -66 47 -32 49 -33 63 -14 8 10 15 24 15 29 0 6 18 34 40 63 22 28
38 52 35 52 -3 0 4 9 15 20 12 12 18 25 15 31 -4 5 -3 9 2 7 4 -1 49 39 98 88
118 116 133 128 218 168 102 49 217 70 333 62 l94 -7 18 31 c11 18 27 78 36
141 l17 110 -23 37 c-12 20 -45 60 -73 88 -59 59 -108 114 -151 170 -28 36
-45 64 -114 194 -45 84 -94 209 -106 269 -3 13 -10 33 -15 44 -6 11 -13 29
-14 41 -2 11 -13 68 -24 126 -12 58 -26 143 -32 190 -21 172 -17 162 -79 176
-30 7 -60 13 -66 14 -7 0 -14 -41 -18 -114 -5 -91 -12 -128 -37 -192 -29 -74
-87 -193 -100 -204 -3 -3 -25 -33 -48 -67 -24 -35 -47 -65 -52 -69 -5 -3 -7
-10 -3 -15 3 -5 2 -8 -3 -7 -10 4 -88 -81 -81 -88 5 -5 139 47 210 81 61 30
69 19 62 -82 -3 -48 -16 -146 -29 -218 -13 -71 -29 -161 -35 -200 -16 -92 -47
-144 -141 -235 -87 -85 -209 -156 -319 -185 -99 -26 -350 -18 -440 14 -102 36
-156 64 -237 124 -144 105 -248 293 -273 491 -12 93 -14 1775 -2 1791 4 6 42
28 84 49 155 77 248 222 248 387 0 145 -99 307 -228 373 -83 43 -221 68 -277
51z m178 -191 c62 -33 97 -67 123 -122 23 -49 26 -65 22 -129 -9 -139 -95
-224 -235 -231 -85 -5 -134 9 -189 54 -23 18 -45 30 -49 26 -5 -4 -5 -2 -1 5
4 7 -3 31 -15 54 -18 37 -20 53 -15 123 8 108 9 115 18 110 4 -3 8 -1 8 5 0
15 78 88 114 105 43 22 177 21 219 0z"/>
</g>
</svg>
